<svg xmlns="http://www.w3.org/2000/svg" xmlns:xlink="http://www.w3.org/1999/xlink" viewBox="0 0 194 198.04"><defs><style>.a{fill:none;}.b,.d{fill:#2c3e50;}.c{clip-path:url(#a);}.d{opacity:0.1;}.e{fill:#dcb570;}</style><clipPath id="a" transform="translate(-153 -36)"><circle class="a" cx="250" cy="133" r="71"/></clipPath></defs><title>school</title><path class="b" d="M250,48a85,85,0,1,1-85,85,85,85,0,0,1,85-85m0-12a97,97,0,1,0,97,97,97.11,97.11,0,0,0-97-97h0Z" transform="translate(-153 -36)"/><g class="c"><rect class="d" x="80.56" y="126.53" width="31.97" height="46.94"/><polygon class="d" points="146.18 99.07 123.98 83.76 123.98 53.91 102.57 41.75 101.89 36.2 96.34 34.26 86.4 41.87 86.61 44.49 70.02 53.91 70.02 83.76 47.82 99.07 47.82 111.7 90.5 93.43 90.53 93.81 97 90.65 104.37 93.81 104.37 93.81 146.18 111.7 146.18 99.07"/><path class="b" d="M316.48,137.5l-33.85-18.69V98.76L293,104.49,298.8,94,250,67,201.2,94l5.8,10.51,10.38-5.73v20.06L183.52,137.5l5.8,10.51,7.33-4V234h12v-96.7L250,114.52l41.35,22.83V234h12V144l7.33,4Zm-87.11-25.31V92.14L250,80.75l20.63,11.39v20.06L250,100.81Z" transform="translate(-153 -36)"/><polygon class="e" points="118.5 173.47 106.5 173.47 106.5 131.25 87.5 131.25 87.5 173.47 75.5 173.47 75.5 119.25 118.5 119.25 118.5 173.47"/></g></svg>