<svg id="school" xmlns="http://www.w3.org/2000/svg" viewBox="0 0 285.55 304.37"><defs><style>.cls-1,.cls-2,.cls-3{fill:none;stroke-miterlimit:10;}.cls-1,.cls-2{stroke:#dcb570;}.cls-1{stroke-width:6.92px;}.cls-2{stroke-width:6px;}.cls-3{stroke:#2c3e50;stroke-width:13.83px;}</style></defs><title>school</title><polyline class="cls-1" points="142.77 41 191.51 41 191.51 3.46 142.77 3.46 142.77 41 142.77 78.54"/><polygon class="cls-2" points="141.77 178.46 165.77 178.46 165.77 151.46 141.77 151.46 115.77 151.46 115.77 178.46 141.77 178.46"/><polygon class="cls-2" points="65.7 255.46 88.77 255.46 88.77 228.46 65.7 228.46 41.77 228.46 41.77 255.46 65.7 255.46"/><polygon class="cls-2" points="217.84 255.46 241.77 255.46 241.77 228.46 217.84 228.46 192.77 228.46 192.77 255.46 217.84 255.46"/><polyline class="cls-3" points="120.47 297.46 120.47 228.3 165.08 228.3 165.08 297.46"/><polygon class="cls-3" points="143.78 297.46 278.63 297.46 278.63 193.72 216.39 193.72 216.39 128.03 142.77 78.54 69.16 128.03 69.16 193.72 6.92 193.72 6.92 297.46 143.78 297.46"/></svg>